HIERARCHY
ROOT Hips
{
	OFFSET 0.000000 1.471914 24.280096
	CHANNELS 6 Xposition Yposition Zposition Xrotation Yrotation Zrotation
	JOINT Spine
	{
		OFFSET 0.000000 0.900110 1.860670
		CHANNELS 6 Xposition Yposition Zposition Xrotation Yrotation Zrotation
		JOINT Spine1
		{
			OFFSET 0.000000 0.400320 2.270309
			CHANNELS 6 Xposition Yposition Zposition Xrotation Yrotation Zrotation
			JOINT Spine2
			{
				OFFSET 0.000000 0.200920 2.296560
				CHANNELS 6 Xposition Yposition Zposition Xrotation Yrotation Zrotation
				JOINT Spine3
				{
					OFFSET 0.000000 0.000000 2.305330
					CHANNELS 6 Xposition Yposition Zposition Xrotation Yrotation Zrotation
					JOINT Neck
					{
						OFFSET 0.000000 -0.864490 6.051487
						CHANNELS 6 Xposition Yposition Zposition Xrotation Yrotation Zrotation
						JOINT Head
						{
							OFFSET 0.000000 -0.550429 3.121674
							CHANNELS 6 Xposition Yposition Zposition Xrotation Yrotation Zrotation
							End Site
							{
								OFFSET 0.000000 0.000000 3.731750
							}
						}
					}
					JOINT RightShoulder
					{
						OFFSET -0.788280 -1.313800 4.256718
						CHANNELS 6 Xposition Yposition Zposition Xrotation Yrotation Zrotation
						JOINT RightArm
						{
							OFFSET -3.915130 0.000000 0.000000
							CHANNELS 6 Xposition Yposition Zposition Xrotation Yrotation Zrotation
							JOINT RightForeArm
							{
								OFFSET -6.914910 0.000000 0.000000
								CHANNELS 6 Xposition Yposition Zposition Xrotation Yrotation Zrotation
								JOINT RightHand
								{
									OFFSET -6.096219 0.000000 0.000000
									CHANNELS 6 Xposition Yposition Zposition Xrotation Yrotation Zrotation
									JOINT RightHandEnd
									{
										OFFSET -1.749950 0.000000 0.000000
										CHANNELS 6 Xposition Yposition Zposition Xrotation Yrotation Zrotation
										End Site
										{
											OFFSET -1.749950 0.000000 0.000000
										}
									}
									JOINT RightHandThumb1
									{
										OFFSET -0.699980 -1.166630 -0.466648
										CHANNELS 6 Xposition Yposition Zposition Xrotation Yrotation Zrotation
										End Site
										{
											OFFSET -1.690319 -0.452920 0.000000
										}
									}
								}
							}
						}
					}
					JOINT LeftShoulder
					{
						OFFSET 0.788280 -1.313800 4.256718
						CHANNELS 6 Xposition Yposition Zposition Xrotation Yrotation Zrotation
						JOINT LeftArm
						{
							OFFSET 3.915130 0.000000 0.000000
							CHANNELS 6 Xposition Yposition Zposition Xrotation Yrotation Zrotation
							JOINT LeftForeArm
							{
								OFFSET 6.914910 0.000000 0.000000
								CHANNELS 6 Xposition Yposition Zposition Xrotation Yrotation Zrotation
								JOINT LeftHand
								{
									OFFSET 6.096219 0.000000 0.000000
									CHANNELS 6 Xposition Yposition Zposition Xrotation Yrotation Zrotation
									JOINT LeftHandEnd
									{
										OFFSET 1.749950 0.000000 0.000000
										CHANNELS 6 Xposition Yposition Zposition Xrotation Yrotation Zrotation
										End Site
										{
											OFFSET 1.749950 0.000000 0.000000
										}
									}
									JOINT LeftHandThumb1
									{
										OFFSET 0.699980 -1.166630 -0.466648
										CHANNELS 6 Xposition Yposition Zposition Xrotation Yrotation Zrotation
										End Site
										{
											OFFSET 1.690319 -0.452920 0.000000
										}
									}
								}
							}
						}
					}
				}
			}
		}
	}
	JOINT RightUpLeg
	{
		OFFSET -2.338570 -0.252550 -0.551512
		CHANNELS 6 Xposition Yposition Zposition Xrotation Yrotation Zrotation
		JOINT RightLeg
		{
			OFFSET 0.000000 0.000000 -10.744959
			CHANNELS 6 Xposition Yposition Zposition Xrotation Yrotation Zrotation
			JOINT RightFoot
			{
				OFFSET 0.000000 -0.000001 -10.930849
				CHANNELS 6 Xposition Yposition Zposition Xrotation Yrotation Zrotation
				JOINT RightToeBase
				{
					OFFSET 0.000000 -4.087269 -1.487650
					CHANNELS 6 Xposition Yposition Zposition Xrotation Yrotation Zrotation
					End Site
					{
						OFFSET 0.000000 -1.891870 0.000000
					}
				}
			}
		}
	}
	JOINT LeftUpLeg
	{
		OFFSET 2.338570 -0.252550 -0.551512
		CHANNELS 6 Xposition Yposition Zposition Xrotation Yrotation Zrotation
		JOINT LeftLeg
		{
			OFFSET 0.000000 0.000000 -10.744959
			CHANNELS 6 Xposition Yposition Zposition Xrotation Yrotation Zrotation
			JOINT LeftFoot
			{
				OFFSET 0.000000 -0.000001 -10.930849
				CHANNELS 6 Xposition Yposition Zposition Xrotation Yrotation Zrotation
				JOINT LeftToeBase
				{
					OFFSET 0.000000 -4.087269 -1.487650
					CHANNELS 6 Xposition Yposition Zposition Xrotation Yrotation Zrotation
					End Site
					{
						OFFSET 0.000000 -1.891870 0.000000
					}
				}
			}
		}
	}
}
MOTION
Frames: 5
Frame Time: 0.041667
0.000034 26.568296 41.033913 13.201895 -28.427396 -40.093378 -0.000001 0.900110 1.860643 25.537078 -4.409643 -3.738803 0.000001 0.400325 2.270314 -0.430002 -2.973795 0.051107 0.000003 0.200919 2.296563 0.914103 3.358500 10.607998 0.000001 0.000020 2.305346 -0.542868 -0.290077 -15.498900 -0.000007 -0.864486 6.051449 -16.894365 3.297416 -178.410046 -0.000008 -0.550430 3.121680 3.770702 0.771001 -17.870785 -0.788280 -1.313812 4.256700 117.310179 30.728359 14.863849 -3.915133 0.000008 -0.000007 -3.667946 -8.252618 2.894097 -6.914919 0.000001 -0.000006 4.119142 8.038068 -51.480010 -6.096227 0.000027 -0.000009 -0.000041 -0.000028 0.000020 -1.749949 0.000013 -0.000001 0.000000 -0.000004 -0.000000 -0.699969 -1.166625 -0.466656 -0.000002 -0.000004 -0.000009 0.788294 -1.313801 4.256708 -165.100849 -46.755117 35.761327 3.915139 -0.000001 0.000002 -19.790198 14.439471 1.928227 6.914922 0.000006 0.000007 19.935306 -14.234380 44.765627 6.096239 0.000016 -0.000007 -0.000021 0.000026 -0.000023 1.749961 -0.000024 -0.000006 -0.000003 0.000001 -0.000001 0.699982 -1.166609 -0.466659 -0.000004 -0.000002 0.000007 -2.338570 -0.252532 -0.551518 -51.556925 4.495225 6.647068 0.000011 0.000004 -10.744969 28.333153 5.192293 -0.379900 -0.000003 -0.000001 -10.930836 -0.000010 -0.000009 0.000008 -0.000011 -4.087268 -1.487628 4.691005 0.000003 0.000000 2.338567 -0.252543 -0.551493 -29.715786 2.192929 4.223125 -0.000010 -0.000013 -10.744946 42.585567 24.153458 -3.755336 0.000007 0.000003 -10.930858 -0.000022 0.000002 -0.000011 0.000005 -4.087265 -1.487645 -2.694005 0.000002 -0.000001 
0.000061 26.568275 41.033978 12.594964 -27.656834 -38.767792 0.000003 0.900107 1.860650 26.081057 -4.939508 -3.640482 0.000000 0.400323 2.270316 -0.415307 -2.954194 0.053003 0.000002 0.200923 2.296560 0.898011 3.322695 10.590803 0.000002 0.000023 2.305341 -0.538382 -0.274578 -15.374879 -0.000004 -0.864482 6.051445 -16.869787 4.005632 -178.588574 -0.000008 -0.550436 3.121687 3.746692 0.789994 -17.836995 -0.788272 -1.313814 4.256703 114.968299 27.492012 14.236923 -3.915133 0.000007 -0.000013 -3.618986 -8.122668 2.734955 -6.914917 -0.000001 -0.000015 4.039866 7.922791 -48.637593 -6.096226 0.000020 -0.000003 -0.000039 -0.000031 0.000020 -1.749949 0.000009 -0.000012 -0.000003 -0.000003 -0.000003 -0.699968 -1.166624 -0.466661 -0.000006 -0.000006 -0.000013 0.788298 -1.313806 4.256700 -162.668919 -44.644889 36.981667 3.915144 -0.000000 0.000005 -19.655819 14.239272 1.889046 6.914923 0.000004 0.000001 19.795736 -14.040114 49.285979 6.096243 0.000016 -0.000002 -0.000021 0.000025 -0.000022 1.749962 -0.000025 -0.000003 0.000001 0.000000 -0.000000 0.699989 -1.166610 -0.466657 -0.000003 0.000002 0.000008 -2.338568 -0.252533 -0.551514 -48.131677 6.602681 6.029357 0.000009 0.000004 -10.744970 28.080200 3.481942 0.554784 -0.000004 0.000001 -10.930837 -0.000012 -0.000008 0.000010 -0.000006 -4.087268 -1.487632 4.602013 0.000002 -0.000006 2.338567 -0.252546 -0.551492 -29.318601 1.951839 3.980175 -0.000011 -0.000012 -10.744948 43.024250 23.786060 -3.728393 0.000008 0.000002 -10.930853 -0.000020 0.000004 -0.000013 0.000007 -4.087262 -1.487646 -2.618601 -0.000004 -0.000001 
0.000065 26.568260 41.034027 11.836980 -27.226903 -38.498163 0.000004 0.900099 1.860647 25.546243 -4.599979 -3.280171 0.000005 0.400329 2.270316 -0.400304 -2.918107 0.059207 -0.000001 0.200924 2.296560 0.870200 3.255802 10.566911 0.000001 0.000019 2.305342 -0.519831 -0.246934 -15.270688 -0.000003 -0.864485 6.051455 -17.370923 3.191008 -179.323898 -0.000005 -0.550438 3.121686 3.768694 0.827303 -17.771109 -0.788279 -1.313812 4.256706 115.423968 24.604346 12.348091 -3.915132 0.000007 -0.000019 -3.566571 -7.991806 2.559884 -6.914916 0.000000 -0.000017 3.955609 7.807503 -47.991569 -6.096226 0.000023 -0.000006 -0.000040 -0.000031 0.000020 -1.749952 0.000012 -0.000000 0.000002 -0.000002 -0.000002 -0.699969 -1.166628 -0.466659 0.000001 -0.000001 -0.000007 0.788294 -1.313804 4.256707 -161.101896 -42.628423 35.873489 3.915136 -0.000001 0.000002 -19.617068 14.085080 1.912415 6.914927 0.000011 -0.000004 19.742541 -13.905032 57.060193 6.096249 0.000017 -0.000003 -0.000025 0.000031 -0.000024 1.749956 -0.000028 -0.000008 0.000001 -0.000001 -0.000003 0.699976 -1.166612 -0.466655 -0.000004 -0.000000 0.000007 -2.338568 -0.252540 -0.551512 -45.606191 8.939948 5.339287 0.000013 0.000006 -10.744973 28.977928 0.234021 1.792476 -0.000004 -0.000001 -10.930840 -0.000012 -0.000008 0.000009 -0.000010 -4.087268 -1.487633 4.523503 0.000001 -0.000005 2.338570 -0.252555 -0.551490 -28.440361 1.972125 3.564646 -0.000011 -0.000012 -10.744951 42.842959 23.158013 -3.333954 0.000010 0.000003 -10.930854 -0.000024 0.000004 -0.000016 0.000004 -4.087269 -1.487649 -2.504396 0.000002 0.000003 
0.000054 26.568274 41.034119 11.310050 -25.979625 -38.578141 0.000000 0.900104 1.860647 25.313543 -4.657961 -2.730080 -0.000001 0.400322 2.270310 -0.382504 -2.905405 0.057804 -0.000000 0.200929 2.296562 0.829304 3.195805 10.522004 0.000006 0.000023 2.305346 -0.488416 -0.205022 -14.973366 -0.000004 -0.864486 6.051449 -18.526623 3.858170 -176.450738 -0.000007 -0.550432 3.121680 3.878098 0.868896 -17.685598 -0.788277 -1.313809 4.256705 118.374582 23.385451 9.175189 -3.915130 0.000009 -0.000014 -3.517686 -7.870126 2.407286 -6.914917 0.000000 -0.000017 3.879201 7.699206 -47.172486 -6.096226 0.000023 -0.000009 -0.000040 -0.000031 0.000018 -1.749952 0.000003 -0.000004 -0.000003 -0.000002 0.000001 -0.699971 -1.166632 -0.466659 -0.000008 0.000001 -0.000009 0.788299 -1.313804 4.256708 -168.080396 -42.800995 29.384847 3.915145 0.000001 0.000003 -19.665762 14.012316 1.999626 6.914919 0.000004 -0.000003 19.768757 -13.863580 68.481608 6.096245 0.000014 -0.000002 -0.000023 0.000024 -0.000021 1.749959 -0.000027 -0.000003 -0.000000 -0.000005 -0.000001 0.699983 -1.166612 -0.466655 -0.000003 -0.000000 0.000008 -2.338570 -0.252533 -0.551514 -44.309954 9.147750 4.398887 0.000010 0.000003 -10.744970 31.764372 -1.924566 2.442312 -0.000006 -0.000002 -10.930840 -0.000014 -0.000007 0.000003 -0.000008 -4.087267 -1.487633 4.473108 0.000002 -0.000007 2.338566 -0.252545 -0.551493 -27.038030 1.228807 2.864691 -0.000012 -0.000015 -10.744949 40.975121 21.809354 -3.035094 0.000007 0.000008 -10.930855 -0.000026 0.000001 -0.000013 0.000005 -4.087273 -1.487648 -2.357202 -0.000001 0.000001 
0.000054 26.568304 41.034210 12.175322 -25.283217 -38.081276 0.000003 0.900095 1.860643 24.187452 -6.124443 -1.783650 0.000001 0.400324 2.270309 -0.374794 -2.895392 0.054302 0.000001 0.200927 2.296557 0.796697 3.124393 10.441901 0.000002 0.000014 2.305347 -0.452750 -0.149755 -14.418178 -0.000001 -0.864483 6.051451 -21.676282 4.288110 -173.007640 -0.000006 -0.550433 3.121686 4.021308 0.883801 -17.611909 -0.788279 -1.313812 4.256704 121.929163 21.588537 5.450175 -3.915137 0.000009 -0.000010 -3.451857 -7.772661 2.292076 -6.914916 0.000001 -0.000017 3.792540 7.613013 -45.748067 -6.096229 0.000025 -0.000011 -0.000038 -0.000035 0.000015 -1.749944 0.000007 0.000000 -0.000003 -0.000006 -0.000003 -0.699966 -1.166625 -0.466659 -0.000004 -0.000006 -0.000009 0.788299 -1.313807 4.256709 -180.328810 -43.448233 19.544398 3.915148 0.000005 0.000003 -19.693887 13.944028 2.119993 6.914922 0.000010 0.000003 19.766513 -13.838708 82.208334 6.096240 0.000020 -0.000011 -0.000024 0.000031 -0.000021 1.749955 -0.000028 -0.000007 0.000000 0.000001 0.000002 0.699980 -1.166613 -0.466656 -0.000003 0.000004 0.000006 -2.338567 -0.252542 -0.551516 -43.266004 9.376464 2.950883 0.000013 0.000002 -10.744975 33.180909 -3.532395 3.422763 -0.000006 -0.000000 -10.930837 -0.000010 -0.000007 0.000010 -0.000011 -4.087269 -1.487632 4.433604 0.000002 -0.000003 2.338571 -0.252555 -0.551493 -27.922705 1.661538 2.009354 -0.000010 -0.000013 -10.744951 40.482552 17.409281 -1.449225 0.000009 0.000006 -10.930856 -0.000020 -0.000000 -0.000020 0.000007 -4.087265 -1.487645 -2.339902 -0.000002 0.000000 
